<svg width="23" height="18" viewBox="0 0 23 18" fill="none" xmlns="http://www.w3.org/2000/svg">
<path id="Vector" d="M4.30499 0.245688C4.23913 0.171444 4.15918 0.111011 4.06979 0.0678913C3.9804 0.0247716 3.88334 -0.000177125 3.78423 -0.00550877C3.68513 -0.0108404 3.58595 0.00355095 3.49245 0.0368313C3.39895 0.0701117 3.31298 0.121619 3.23953 0.188368C3.16608 0.255117 3.10661 0.335781 3.06457 0.425683C3.02252 0.515585 2.99874 0.612938 2.9946 0.7121C2.99045 0.811262 3.00603 0.910259 3.04043 1.00336C3.07483 1.09645 3.12737 1.18179 3.19499 1.25444L4.99874 3.23913C1.59374 5.32881 0.129366 8.55006 0.0646785 8.69631C0.0220346 8.79223 0 8.89603 0 9.001C0 9.10597 0.0220346 9.20977 0.0646785 9.30569C0.097491 9.37975 0.891554 11.1404 2.65687 12.9057C5.00905 15.2569 7.97999 16.5001 11.25 16.5001C12.9306 16.5096 14.5942 16.1636 16.1316 15.4848L18.1941 17.7544C18.2599 17.8287 18.3399 17.8891 18.4293 17.9322C18.5186 17.9754 18.6157 18.0003 18.7148 18.0056C18.8139 18.011 18.9131 17.9966 19.0066 17.9633C19.1001 17.93 19.1861 17.8785 19.2595 17.8118C19.333 17.745 19.3924 17.6643 19.4345 17.5744C19.4765 17.4845 19.5003 17.3872 19.5044 17.288C19.5086 17.1889 19.493 17.0899 19.4586 16.9968C19.4242 16.9037 19.3717 16.8183 19.3041 16.7457L4.30499 0.245688ZM8.74218 7.35569L12.6487 11.6541C12.0605 11.9636 11.386 12.069 10.7314 11.9536C10.0768 11.8382 9.47896 11.5087 9.03189 11.0168C8.58481 10.5249 8.31377 9.89842 8.26134 9.23577C8.2089 8.57311 8.37803 7.9118 8.74218 7.35569ZM11.25 15.0001C8.36437 15.0001 5.84343 13.951 3.75655 11.8829C2.89997 11.0316 2.17145 10.0606 1.59374 9.00006C2.03343 8.176 3.43687 5.86975 6.0328 4.37069L7.7203 6.22225C7.06699 7.05897 6.73052 8.09972 6.77036 9.16054C6.81021 10.2214 7.22379 11.2339 7.93802 12.0193C8.65225 12.8047 9.62114 13.3122 10.6734 13.4523C11.7257 13.5924 12.7936 13.3559 13.6884 12.7847L15.0694 14.3035C13.8506 14.7711 12.5553 15.0073 11.25 15.0001ZM11.8125 6.0535C11.6171 6.0162 11.4444 5.9028 11.3326 5.73824C11.2208 5.57367 11.1789 5.37143 11.2162 5.176C11.2535 4.98057 11.3669 4.80796 11.5315 4.69614C11.6961 4.58432 11.8983 4.54245 12.0937 4.57975C13.0496 4.76506 13.92 5.25442 14.575 5.97483C15.23 6.69524 15.6346 7.6081 15.7284 8.57725C15.7469 8.77529 15.686 8.97258 15.5591 9.12571C15.4322 9.27885 15.2496 9.37528 15.0516 9.39381C15.0281 9.39519 15.0047 9.39519 14.9812 9.39381C14.7938 9.39462 14.6128 9.32519 14.474 9.19921C14.3352 9.07324 14.2486 8.89984 14.2312 8.71319C14.1681 8.06856 13.8986 7.46151 13.4628 6.98232C13.0271 6.50313 12.4482 6.17738 11.8125 6.0535ZM22.4325 9.30569C22.3931 9.39381 21.4434 11.4966 19.305 13.4119C19.2319 13.4795 19.1461 13.5318 19.0527 13.5658C18.9592 13.5999 18.8599 13.615 18.7605 13.6103C18.6611 13.6056 18.5636 13.5812 18.4738 13.5384C18.3839 13.4957 18.3035 13.4355 18.2371 13.3614C18.1708 13.2872 18.1198 13.2006 18.0873 13.1066C18.0547 13.0126 18.0412 12.913 18.0475 12.8138C18.0537 12.7145 18.0797 12.6174 18.1239 12.5282C18.168 12.4391 18.2295 12.3596 18.3047 12.2944C19.3538 11.3519 20.2351 10.2379 20.9109 9.00006C20.3319 7.9386 19.6018 6.96689 18.7434 6.11538C16.6566 4.04913 14.1356 3.00006 11.25 3.00006C10.642 2.99932 10.0349 3.04855 9.43499 3.14725C9.33743 3.1645 9.23741 3.16226 9.14073 3.14064C9.04404 3.11902 8.95259 3.07845 8.87167 3.02129C8.79074 2.96413 8.72195 2.8915 8.66925 2.8076C8.61656 2.72369 8.58101 2.63018 8.56466 2.53247C8.54832 2.43475 8.55149 2.33476 8.57401 2.23827C8.59652 2.14179 8.63793 2.05072 8.69584 1.97033C8.75375 1.88994 8.82702 1.82182 8.9114 1.76991C8.99579 1.718 9.08963 1.68332 9.18749 1.66788C9.86921 1.55531 10.559 1.49919 11.25 1.50006C14.52 1.50006 17.4909 2.74319 19.8431 5.09538C21.6084 6.86069 22.4025 8.62225 22.4353 8.69631C22.4779 8.79223 22.5 8.89603 22.5 9.001C22.5 9.10597 22.4779 9.20977 22.4353 9.30569H22.4325Z" fill="white"/>
</svg>
