<svg width="21" height="21" viewBox="0 0 21 21" fill="none" xmlns="http://www.w3.org/2000/svg">
<g id="Frame">
<path id="Vector" d="M10.5 21C14.8496 21 18.375 18.375 18.375 13.7812C18.375 11.8125 17.7188 8.53125 15.0938 5.90625C15.4219 7.875 13.4531 8.53125 13.4531 8.53125C14.4375 5.25 11.8125 0.65625 7.875 0C8.34356 2.625 8.53125 5.25 5.25 7.875C3.60938 9.1875 2.625 11.4568 2.625 13.7812C2.625 18.375 6.15038 21 10.5 21ZM10.5 19.6875C8.32519 19.6875 6.5625 18.375 6.5625 16.0781C6.5625 15.0938 6.89062 13.4531 8.20312 12.1406C8.03906 13.125 9.1875 13.7812 9.1875 13.7812C8.69531 12.1406 9.84375 9.51562 11.8125 9.1875C11.5776 10.5 11.4844 11.8125 13.125 13.125C13.9453 13.7812 14.4375 14.9153 14.4375 16.0781C14.4375 18.375 12.6748 19.6875 10.5 19.6875Z" fill="#FE9B37"/>
</g>
</svg>
