<svg width="21" height="21" viewBox="0 0 21 21" fill="none" xmlns="http://www.w3.org/2000/svg">
<g id="Clip path group">
<mask id="mask0_18_40" style="mask-type:luminance" maskUnits="userSpaceOnUse" x="0" y="0" width="21" height="21">
<g id="clip0_760_7194">
<path id="Vector" d="M20.25 0.0185547H0V20.9815H20.25V0.0185547Z" fill="white"/>
</g>
</mask>
<g mask="url(#mask0_18_40)">
<g id="Group">
<path id="Vector_2" d="M19.8451 10.7381C19.8451 9.99486 19.7807 9.28023 19.661 8.59412H10.1251V12.6486H15.5741C15.3394 13.9587 14.6261 15.0688 13.5538 15.8121V18.442H16.826C18.7405 16.6173 19.8451 13.9301 19.8451 10.7381Z" fill="#4285F4"/>
<path id="Vector_3" d="M10.1252 20.9815C12.8589 20.9815 15.1508 20.0428 16.826 18.4421L13.5538 15.8122C12.6472 16.4411 11.4874 16.8127 10.1252 16.8127C7.48801 16.8127 5.25595 14.9689 4.45972 12.4915H1.07706V15.2071C2.74313 18.6327 6.1672 20.9815 10.1252 20.9815Z" fill="#34A853"/>
<path id="Vector_4" d="M4.45962 12.4917C4.25712 11.8628 4.1421 11.1911 4.1421 10.5002C4.1421 9.80938 4.25712 9.13763 4.45962 8.50874V5.79309H1.07696C0.391291 7.20809 6.10352e-05 8.80893 6.10352e-05 10.5002C6.10352e-05 12.1915 0.391291 13.7923 1.07696 15.2073L4.45962 12.4917Z" fill="#FBBC04"/>
<path id="Vector_5" d="M10.1252 4.18711C11.6116 4.18711 12.9463 4.7159 13.9956 5.75451L16.8997 2.74821C15.1463 1.05692 12.8543 0.0183105 10.1252 0.0183105C6.1672 0.0183105 2.74313 2.36711 1.07706 5.79266L4.45972 8.50831C5.25595 6.03091 7.48801 4.18711 10.1252 4.18711Z" fill="#E94235"/>
</g>
</g>
</g>
</svg>
