<svg width="136" height="15" viewBox="0 0 136 15" fill="none" xmlns="http://www.w3.org/2000/svg">
<path id="Vector" d="M6.5416 8.07418H8.27773C8.22216 8.7541 8.03697 9.36026 7.72215 9.89277C7.40733 10.4206 6.96522 10.8366 6.39583 11.1409C5.82633 11.4452 5.13421 11.5973 4.31938 11.5973C3.69442 11.5973 3.13193 11.4832 2.63192 11.255C2.1319 11.022 1.70372 10.6939 1.34714 10.2708C0.990674 9.8429 0.717605 9.32698 0.527739 8.72312C0.342545 8.11936 0.25 7.44413 0.25 6.69765V5.83473C0.25 5.08825 0.344883 4.41312 0.534648 3.80926C0.729086 3.20539 1.00693 2.68948 1.36807 2.26162C1.72911 1.82896 2.16197 1.49844 2.66666 1.27027C3.17591 1.042 3.74765 0.927964 4.38186 0.927964C5.18744 0.927964 5.86798 1.08008 6.42356 1.38441C6.97914 1.68864 7.40966 2.1094 7.71524 2.6467C8.02538 3.18401 8.21525 3.79976 8.28464 4.49387H6.54861C6.50229 4.04692 6.4004 3.66424 6.24304 3.34561C6.09025 3.02709 5.86341 2.78463 5.5625 2.61822C5.2615 2.44702 4.86805 2.36146 4.38186 2.36146C3.98374 2.36146 3.63651 2.43752 3.34028 2.58963C3.04395 2.74185 2.79629 2.96533 2.59717 3.26006C2.39806 3.5549 2.24761 3.9186 2.14582 4.35126C2.0486 4.77922 1.99994 5.26895 1.99994 5.82044V6.69765C1.99994 7.22065 2.04393 7.69619 2.1319 8.12405C2.22455 8.54722 2.36342 8.91091 2.54861 9.21525C2.73838 9.51958 2.97914 9.75495 3.2708 9.92135C3.56245 10.0878 3.91202 10.1709 4.31938 10.1709C4.81482 10.1709 5.21528 10.0902 5.52075 9.92845C5.831 9.76684 6.06475 9.53147 6.22221 9.22244C6.38424 8.90862 6.49071 8.52583 6.5416 8.07418ZM9.37497 7.6819V7.51789C9.37497 6.9616 9.4537 6.44569 9.61106 5.97026C9.76852 5.49002 9.99537 5.07395 10.2916 4.72215C10.5926 4.36555 10.9583 4.0898 11.3888 3.89481C11.824 3.69512 12.3148 3.59528 12.861 3.59528C13.412 3.59528 13.9027 3.69512 14.3332 3.89481C14.7684 4.0898 15.1365 4.36555 15.4375 4.72215C15.7384 5.07395 15.9676 5.49002 16.1249 5.97026C16.2824 6.44569 16.361 6.9616 16.361 7.51789V7.6819C16.361 8.23819 16.2824 8.75411 16.1249 9.22954C15.9676 9.70497 15.7384 10.121 15.4375 10.4776C15.1365 10.8294 14.7708 11.1052 14.3403 11.3049C13.9097 11.4999 13.4213 11.5973 12.875 11.5973C12.3241 11.5973 11.8309 11.4999 11.3957 11.3049C10.9652 11.1052 10.5995 10.8294 10.2986 10.4776C9.9976 10.121 9.76852 9.70497 9.61106 9.22954C9.4537 8.75411 9.37497 8.23819 9.37497 7.6819ZM11.0485 7.51789V7.6819C11.0485 8.02901 11.0833 8.35702 11.1527 8.66605C11.2221 8.97518 11.3309 9.24613 11.4791 9.4791C11.6273 9.71217 11.8171 9.89517 12.0485 10.0283C12.2801 10.1614 12.5555 10.228 12.875 10.228C13.1851 10.228 13.4537 10.1614 13.6805 10.0283C13.912 9.89517 14.1018 9.71217 14.2499 9.4791C14.3981 9.24613 14.5069 8.97518 14.5763 8.66605C14.6504 8.35702 14.6875 8.02901 14.6875 7.6819V7.51789C14.6875 7.17548 14.6504 6.85216 14.5763 6.54793C14.5069 6.23891 14.3958 5.96546 14.243 5.72769C14.0948 5.49002 13.9051 5.30452 13.6735 5.1714C13.4467 5.03358 13.1759 4.96461 12.861 4.96461C12.5462 4.96461 12.2732 5.03358 12.0416 5.1714C11.8148 5.30452 11.6273 5.49002 11.4791 5.72769C11.3309 5.96546 11.2221 6.23891 11.1527 6.54793C11.0833 6.85216 11.0485 7.17548 11.0485 7.51789ZM19.4236 5.38538V11.4547H17.7499V3.7379H19.3264L19.4236 5.38538ZM19.1249 7.31101L18.5832 7.30391C18.5879 6.75711 18.662 6.25549 18.8055 5.79905C18.9536 5.3426 19.1573 4.95032 19.4167 4.62231C19.6805 4.29419 19.9953 4.04223 20.361 3.86633C20.7268 3.68563 21.1342 3.59528 21.5833 3.59528C21.9444 3.59528 22.2708 3.64755 22.5624 3.75219C22.8588 3.85203 23.1111 4.01604 23.3193 4.24432C23.5324 4.47249 23.6944 4.76962 23.8055 5.13582C23.9166 5.49712 23.9721 5.94167 23.9721 6.46948V11.4547H22.2916V6.46228C22.2916 6.09149 22.2384 5.79905 22.1319 5.58507C22.03 5.36639 21.8795 5.21188 21.6805 5.12153C21.4861 5.02638 21.243 4.97891 20.9513 4.97891C20.6643 4.97891 20.4073 5.04067 20.1805 5.1643C19.9537 5.28793 19.7616 5.45674 19.6041 5.67072C19.4513 5.8846 19.3333 6.13186 19.25 6.41241C19.1667 6.69295 19.1249 6.99248 19.1249 7.31101ZM29.125 3.7379V4.9931H24.8889V3.7379H29.125ZM26.1111 1.84795H27.7847V9.32229C27.7847 9.55995 27.8171 9.74305 27.8819 9.87138C27.9513 9.99501 28.0462 10.0783 28.1666 10.121C28.287 10.1638 28.4282 10.1852 28.5902 10.1852C28.706 10.1852 28.817 10.1781 28.9236 10.1638C29.0301 10.1495 29.1157 10.1353 29.1805 10.121L29.1874 11.4333C29.0486 11.4761 28.8865 11.5142 28.7013 11.5474C28.5208 11.5807 28.3125 11.5973 28.0764 11.5973C27.6921 11.5973 27.3519 11.5284 27.0555 11.3905C26.7592 11.2479 26.5278 11.0172 26.3611 10.6987C26.1944 10.3802 26.1111 9.95704 26.1111 9.42923V1.84795ZM32.2082 3.7379V11.4547H30.5278V3.7379H32.2082ZM30.4166 1.71242C30.4166 1.45097 30.4999 1.23459 30.6666 1.06338C30.8379 0.887483 31.074 0.799533 31.3749 0.799533C31.6712 0.799533 31.905 0.887483 32.0764 1.06338C32.2476 1.23459 32.3333 1.45097 32.3333 1.71242C32.3333 1.96918 32.2476 2.18316 32.0764 2.35427C31.905 2.52547 31.6712 2.61102 31.3749 2.61102C31.074 2.61102 30.8379 2.52547 30.6666 2.35427C30.4999 2.18316 30.4166 1.96918 30.4166 1.71242ZM35.7013 5.38538V11.4547H34.0278V3.7379H35.6041L35.7013 5.38538ZM35.4027 7.31101L34.8611 7.30391C34.8657 6.75711 34.9398 6.25549 35.0832 5.79905C35.2315 5.3426 35.4351 4.95032 35.6944 4.62231C35.9583 4.29419 36.2731 4.04223 36.6389 3.86633C37.0046 3.68563 37.4119 3.59528 37.8611 3.59528C38.2222 3.59528 38.5486 3.64755 38.8403 3.75219C39.1365 3.85203 39.3888 4.01604 39.5972 4.24432C39.8101 4.47249 39.9721 4.76962 40.0833 5.13582C40.1944 5.49712 40.25 5.94167 40.25 6.46948V11.4547H38.5694V6.46228C38.5694 6.09149 38.5162 5.79905 38.4096 5.58507C38.3078 5.36639 38.1574 5.21188 37.9583 5.12153C37.7638 5.02638 37.5207 4.97891 37.2291 4.97891C36.9421 4.97891 36.6852 5.04067 36.4582 5.1643C36.2314 5.28793 36.0393 5.45674 35.8819 5.67072C35.7291 5.8846 35.6111 6.13186 35.5277 6.41241C35.4444 6.69295 35.4027 6.99248 35.4027 7.31101ZM46.4791 9.63601V3.7379H48.1597V11.4547H46.5763L46.4791 9.63601ZM46.7152 8.03141L47.2777 8.01711C47.2777 8.53532 47.2221 9.01316 47.1111 9.45061C46.9999 9.88327 46.8287 10.2613 46.5971 10.5846C46.3656 10.9032 46.0694 11.1528 45.7083 11.3335C45.3471 11.5094 44.9143 11.5973 44.4097 11.5973C44.044 11.5973 43.7083 11.5426 43.4027 11.4333C43.0972 11.324 42.8332 11.1552 42.6111 10.9269C42.3935 10.6987 42.2245 10.4016 42.1041 10.0354C41.9838 9.66929 41.9235 9.23194 41.9235 8.72312V3.7379H43.5972V8.73741C43.5972 9.01796 43.6296 9.25333 43.6944 9.44352C43.7592 9.62892 43.8472 9.77873 43.9583 9.89277C44.0694 10.0069 44.199 10.0878 44.3472 10.1353C44.4953 10.1828 44.6527 10.2066 44.8194 10.2066C45.2962 10.2066 45.6713 10.1115 45.9443 9.92135C46.2222 9.72636 46.419 9.46491 46.5347 9.13679C46.6551 8.80877 46.7152 8.44028 46.7152 8.03141ZM53.1874 11.5973C52.6318 11.5973 52.1296 11.5047 51.6805 11.3192C51.236 11.129 50.8564 10.8651 50.5416 10.5275C50.2314 10.19 49.993 9.79292 49.8263 9.33648C49.6597 8.88003 49.5763 8.38791 49.5763 7.8602V7.57486C49.5763 6.9711 49.6619 6.4243 49.8333 5.93457C50.0046 5.44485 50.243 5.02638 50.5486 4.67937C50.8541 4.32747 51.2152 4.05882 51.6319 3.87342C52.0485 3.68803 52.5 3.59528 52.9861 3.59528C53.5231 3.59528 53.993 3.68803 54.3958 3.87342C54.7986 4.05882 55.1319 4.32037 55.3957 4.65799C55.6643 4.9908 55.8633 5.38778 55.993 5.84902C56.1273 6.31016 56.1944 6.81888 56.1944 7.37517V8.10976H50.3888V6.87595H54.5416V6.74042C54.5323 6.4314 54.4722 6.14136 54.3611 5.87041C54.2546 5.59936 54.0902 5.38068 53.868 5.21428C53.6458 5.04777 53.3495 4.96461 52.9791 4.96461C52.7013 4.96461 52.4537 5.02638 52.2361 5.15001C52.0231 5.26895 51.8448 5.44245 51.7013 5.67072C51.5579 5.89889 51.4467 6.17464 51.368 6.49796C51.2939 6.81658 51.2569 7.17548 51.2569 7.57486V7.8602C51.2569 8.19782 51.3008 8.51154 51.3888 8.80158C51.4815 9.08692 51.6157 9.33648 51.7916 9.55046C51.9676 9.76444 52.1805 9.93325 52.4305 10.0569C52.6805 10.1757 52.9652 10.2352 53.2846 10.2352C53.6874 10.2352 54.0462 10.1519 54.3611 9.98552C54.6759 9.81911 54.949 9.58374 55.1805 9.27941L56.0624 10.1567C55.9004 10.3992 55.6897 10.6322 55.4305 10.8556C55.1712 11.0743 54.8541 11.2526 54.4791 11.3905C54.1087 11.5284 53.6782 11.5973 53.1874 11.5973ZM63.0834 9.74305L64.8196 3.7379H65.8893L65.5967 5.5352L63.8474 11.4547H62.8884L63.0834 9.74305ZM62.0625 3.7379L63.4166 9.77153L63.5274 11.4547H62.4587L60.4239 3.7379H62.0625ZM67.5137 9.70028L68.8262 3.7379H70.4587L68.43 11.4547H67.3613L67.5137 9.70028ZM66.0691 3.7379L67.7849 9.67169L68.0003 11.4547H67.0413L65.2706 5.528L64.9791 3.7379H66.0691ZM73.3885 3.7379V11.4547H71.7082V3.7379H73.3885ZM71.5975 1.71242C71.5975 1.45097 71.6808 1.23459 71.8474 1.06338C72.018 0.887483 72.2547 0.799533 72.5554 0.799533C72.8521 0.799533 73.0857 0.887483 73.2564 1.06338C73.4281 1.23459 73.5134 1.45097 73.5134 1.71242C73.5134 1.96918 73.4281 2.18316 73.2564 2.35427C73.0857 2.52547 72.8521 2.61102 72.5554 2.61102C72.2547 2.61102 72.018 2.52547 71.8474 2.35427C71.6808 2.18316 71.5975 1.96918 71.5975 1.71242ZM78.6669 3.7379V4.9931H74.4307V3.7379H78.6669ZM75.6528 1.84795H77.326V9.32229C77.326 9.55995 77.3585 9.74305 77.4235 9.87138C77.4926 9.99501 77.5881 10.0783 77.7079 10.121C77.8288 10.1638 77.97 10.1852 78.1316 10.1852C78.2474 10.1852 78.3591 10.1781 78.4648 10.1638C78.5714 10.1495 78.6578 10.1353 78.7218 10.121L78.7289 11.4333C78.5897 11.4761 78.4282 11.5142 78.2433 11.5474C78.0625 11.5807 77.8542 11.5973 77.6175 11.5973C77.2335 11.5973 76.8932 11.5284 76.5976 11.3905C76.3009 11.2479 76.0693 11.0172 75.9027 10.6987C75.7361 10.3802 75.6528 9.95704 75.6528 9.42923V1.84795ZM81.6109 0.5V11.4547H79.9439V0.5H81.6109ZM81.3194 7.31101L80.7779 7.30391C80.782 6.77141 80.8541 6.27928 80.9933 5.82753C81.1365 5.37588 81.3356 4.9836 81.5906 4.65079C81.8497 4.31317 82.1595 4.05412 82.5211 3.87342C82.8818 3.68803 83.282 3.59528 83.7219 3.59528C84.0927 3.59528 84.4259 3.64755 84.7225 3.75219C85.0232 3.85673 85.2823 4.02554 85.4997 4.25851C85.7171 4.48678 85.8817 4.78631 85.9934 5.15721C86.1092 5.5233 86.1661 5.97026 86.1661 6.49796V11.4547H84.4858V6.48377C84.4858 6.11287 84.433 5.81804 84.3263 5.59936C84.2248 5.38068 84.0744 5.22377 83.8753 5.12862C83.6762 5.02878 83.4324 4.97891 83.1459 4.97891C82.8452 4.97891 82.579 5.04067 82.3474 5.1643C82.1199 5.28793 81.9309 5.45674 81.7775 5.67072C81.6251 5.8846 81.5093 6.13186 81.4301 6.41241C81.3559 6.69295 81.3194 6.99248 81.3194 7.31101ZM99.3328 6.14856V10.1138C99.1896 10.3088 98.9651 10.5228 98.6593 10.7558C98.3586 10.984 97.9583 11.1814 97.4585 11.3478C96.9587 11.5142 96.336 11.5973 95.5904 11.5973C94.9564 11.5973 94.3754 11.488 93.8471 11.2693C93.3189 11.0458 92.8637 10.7201 92.4787 10.2921C92.0998 9.86429 91.8052 9.34368 91.597 8.73032C91.3887 8.11216 91.2851 7.40845 91.2851 6.61919V5.89889C91.2851 5.11443 91.3796 4.41542 91.5695 3.80206C91.7635 3.18401 92.0419 2.661 92.4025 2.23303C92.7642 1.80517 93.199 1.48185 93.7079 1.26307C94.222 1.0397 94.803 0.927964 95.4512 0.927964C96.2801 0.927964 96.9648 1.07058 97.5073 1.35582C98.0528 1.63637 98.4744 2.02625 98.771 2.52547C99.0667 3.02469 99.2546 3.59528 99.3328 4.23712H97.6251C97.5693 3.87582 97.4606 3.5525 97.298 3.26716C97.1416 2.98192 96.914 2.75844 96.6184 2.59683C96.3258 2.43043 95.9469 2.34717 95.4786 2.34717C95.0763 2.34717 94.7218 2.42563 94.417 2.58254C94.1112 2.73945 93.8563 2.97002 93.6531 3.27436C93.454 3.57858 93.3036 3.94948 93.201 4.38694C93.0994 4.82439 93.0486 5.32362 93.0486 5.8846V6.61919C93.0486 7.18977 93.1065 7.69619 93.2223 8.13835C93.3422 8.5805 93.5139 8.95379 93.7364 9.25802C93.9629 9.56235 94.2382 9.79292 94.5623 9.94984C94.8863 10.1021 95.2521 10.1781 95.6594 10.1781C96.0576 10.1781 96.3837 10.1448 96.6387 10.0783C96.8937 10.0069 97.0949 9.92375 97.2432 9.8286C97.3956 9.72876 97.5134 9.63371 97.5967 9.54336V7.48221H95.4928V6.14856H99.3328ZM100.777 7.6819V7.51789C100.777 6.9616 100.857 6.44569 101.014 5.97026C101.172 5.49002 101.398 5.07395 101.695 4.72215C101.995 4.36555 102.361 4.0898 102.792 3.89481C103.227 3.69512 103.717 3.59528 104.264 3.59528C104.814 3.59528 105.305 3.69512 105.736 3.89481C106.172 4.0898 106.539 4.36555 106.84 4.72215C107.141 5.07395 107.37 5.49002 107.528 5.97026C107.685 6.44569 107.764 6.9616 107.764 7.51789V7.6819C107.764 8.23819 107.685 8.75411 107.528 9.22954C107.37 9.70497 107.141 10.121 106.84 10.4776C106.539 10.8294 106.174 11.1052 105.743 11.3049C105.312 11.4999 104.824 11.5973 104.278 11.5973C103.726 11.5973 103.234 11.4999 102.799 11.3049C102.368 11.1052 102.003 10.8294 101.701 10.4776C101.4 10.121 101.172 9.70497 101.014 9.22954C100.857 8.75411 100.777 8.23819 100.777 7.6819ZM102.452 7.51789V7.6819C102.452 8.02901 102.486 8.35702 102.555 8.66605C102.625 8.97518 102.734 9.24613 102.882 9.4791C103.03 9.71217 103.22 9.89517 103.451 10.0283C103.683 10.1614 103.958 10.228 104.278 10.228C104.588 10.228 104.856 10.1614 105.084 10.0283C105.314 9.89517 105.504 9.71217 105.653 9.4791C105.801 9.24613 105.91 8.97518 105.979 8.66605C106.053 8.35702 106.09 8.02901 106.09 7.6819V7.51789C106.09 7.17548 106.053 6.85216 105.979 6.54793C105.91 6.23891 105.799 5.96546 105.645 5.72769C105.497 5.49002 105.308 5.30452 105.077 5.1714C104.849 5.03358 104.579 4.96461 104.264 4.96461C103.949 4.96461 103.676 5.03358 103.444 5.1714C103.218 5.30452 103.03 5.49002 102.882 5.72769C102.734 5.96546 102.625 6.23891 102.555 6.54793C102.486 6.85216 102.452 7.17548 102.452 7.51789ZM108.847 7.6819V7.51789C108.847 6.9616 108.926 6.44569 109.083 5.97026C109.241 5.49002 109.467 5.07395 109.764 4.72215C110.064 4.36555 110.43 4.0898 110.861 3.89481C111.296 3.69512 111.787 3.59528 112.333 3.59528C112.885 3.59528 113.375 3.69512 113.806 3.89481C114.241 4.0898 114.608 4.36555 114.909 4.72215C115.211 5.07395 115.439 5.49002 115.597 5.97026C115.754 6.44569 115.834 6.9616 115.834 7.51789V7.6819C115.834 8.23819 115.754 8.75411 115.597 9.22954C115.439 9.70497 115.211 10.121 114.909 10.4776C114.608 10.8294 114.243 11.1052 113.812 11.3049C113.382 11.4999 112.894 11.5973 112.347 11.5973C111.797 11.5973 111.303 11.4999 110.868 11.3049C110.437 11.1052 110.072 10.8294 109.771 10.4776C109.47 10.121 109.241 9.70497 109.083 9.22954C108.926 8.75411 108.847 8.23819 108.847 7.6819ZM110.521 7.51789V7.6819C110.521 8.02901 110.555 8.35702 110.625 8.66605C110.694 8.97518 110.803 9.24613 110.951 9.4791C111.1 9.71217 111.29 9.89517 111.52 10.0283C111.752 10.1614 112.028 10.228 112.347 10.228C112.657 10.228 112.926 10.1614 113.153 10.0283C113.384 9.89517 113.574 9.71217 113.722 9.4791C113.87 9.24613 113.979 8.97518 114.049 8.66605C114.123 8.35702 114.159 8.02901 114.159 7.6819V7.51789C114.159 7.17548 114.123 6.85216 114.049 6.54793C113.979 6.23891 113.868 5.96546 113.716 5.72769C113.567 5.49002 113.377 5.30452 113.146 5.1714C112.919 5.03358 112.648 4.96461 112.333 4.96461C112.018 4.96461 111.746 5.03358 111.514 5.1714C111.287 5.30452 111.1 5.49002 110.951 5.72769C110.803 5.96546 110.694 6.23891 110.625 6.54793C110.555 6.85216 110.521 7.17548 110.521 7.51789ZM122.049 3.7379H123.57V11.2407C123.57 11.9349 123.426 12.5245 123.139 13.0094C122.851 13.4945 122.451 13.863 121.937 14.1149C121.424 14.3717 120.829 14.5 120.153 14.5C119.866 14.5 119.547 14.4572 119.194 14.3717C118.847 14.2861 118.509 14.1482 118.18 13.958C117.856 13.7726 117.586 13.5277 117.368 13.2234L118.153 12.2107C118.421 12.5388 118.718 12.7789 119.042 12.931C119.366 13.0832 119.706 13.1593 120.063 13.1593C120.447 13.1593 120.773 13.0856 121.042 12.9382C121.314 12.7956 121.526 12.584 121.674 12.3034C121.821 12.0229 121.895 11.6806 121.895 11.2764V5.48522L122.049 3.7379ZM116.944 7.6819V7.53208C116.944 6.94731 117.014 6.41481 117.152 5.93457C117.291 5.44954 117.491 5.03358 117.75 4.68647C118.01 4.33467 118.324 4.06602 118.694 3.88052C119.065 3.69032 119.484 3.59528 119.951 3.59528C120.438 3.59528 120.852 3.68563 121.194 3.86633C121.542 4.04692 121.831 4.30608 122.062 4.64369C122.294 4.97651 122.474 5.37588 122.604 5.84182C122.739 6.30307 122.838 6.81658 122.903 7.38237V7.8602C122.842 8.41169 122.741 8.91571 122.597 9.37216C122.454 9.8286 122.264 10.2233 122.027 10.5561C121.792 10.8889 121.5 11.1457 121.153 11.3264C120.81 11.507 120.405 11.5973 119.938 11.5973C119.479 11.5973 119.065 11.4999 118.694 11.3049C118.329 11.11 118.014 10.8366 117.75 10.4847C117.491 10.1329 117.291 9.71927 117.152 9.24383C117.014 8.7636 116.944 8.24289 116.944 7.6819ZM118.618 7.53208V7.6819C118.618 8.0337 118.651 8.36182 118.716 8.66605C118.785 8.97038 118.888 9.23903 119.028 9.472C119.171 9.70028 119.352 9.88087 119.569 10.014C119.791 10.1424 120.054 10.2066 120.354 10.2066C120.747 10.2066 121.069 10.121 121.319 9.94984C121.574 9.77873 121.768 9.54806 121.902 9.25802C122.042 8.96329 122.139 8.63517 122.194 8.27387V6.98299C122.167 6.70245 122.109 6.44089 122.02 6.19843C121.937 5.95596 121.824 5.74438 121.68 5.56368C121.537 5.37828 121.356 5.23566 121.139 5.13582C120.921 5.03118 120.664 4.97891 120.367 4.97891C120.067 4.97891 119.806 5.04547 119.583 5.1786C119.361 5.31172 119.178 5.49472 119.035 5.72769C118.895 5.96066 118.792 6.23171 118.722 6.54074C118.653 6.84987 118.618 7.18028 118.618 7.53208ZM127.097 0.5V11.4547H125.416V0.5H127.097ZM132.243 11.5973C131.687 11.5973 131.186 11.5047 130.736 11.3192C130.292 11.129 129.912 10.8651 129.597 10.5275C129.287 10.19 129.048 9.79292 128.882 9.33648C128.715 8.88003 128.632 8.38791 128.632 7.8602V7.57486C128.632 6.9711 128.718 6.4243 128.889 5.93457C129.06 5.44485 129.298 5.02638 129.604 4.67937C129.91 4.32747 130.271 4.05882 130.688 3.87342C131.104 3.68803 131.555 3.59528 132.042 3.59528C132.578 3.59528 133.049 3.68803 133.451 3.87342C133.854 4.05882 134.187 4.32037 134.452 4.65799C134.72 4.9908 134.919 5.38778 135.049 5.84902C135.183 6.31016 135.25 6.81888 135.25 7.37517V8.10976H129.444V6.87595H133.597V6.74042C133.588 6.4314 133.528 6.14136 133.416 5.87041C133.31 5.59936 133.146 5.38068 132.924 5.21428C132.701 5.04777 132.405 4.96461 132.035 4.96461C131.756 4.96461 131.51 5.02638 131.291 5.15001C131.079 5.26895 130.9 5.44245 130.757 5.67072C130.614 5.89889 130.502 6.17464 130.424 6.49796C130.349 6.81658 130.313 7.17548 130.313 7.57486V7.8602C130.313 8.19782 130.357 8.51154 130.444 8.80158C130.537 9.08692 130.671 9.33648 130.847 9.55046C131.023 9.76444 131.236 9.93325 131.486 10.0569C131.736 10.1757 132.021 10.2352 132.341 10.2352C132.743 10.2352 133.101 10.1519 133.416 9.98552C133.731 9.81911 134.005 9.58374 134.236 9.27941L135.118 10.1567C134.956 10.3992 134.745 10.6322 134.486 10.8556C134.227 11.0743 133.91 11.2526 133.534 11.3905C133.164 11.5284 132.734 11.5973 132.243 11.5973Z" fill="#1F1F1F"/>
</svg>
