<svg width="32" height="32" viewBox="0 0 32 32" fill="none" xmlns="http://www.w3.org/2000/svg">
<path d="M22.7799 23.3473L22.7883 21.5124C22.7927 20.5392 22.4226 19.6041 21.7594 18.9128C21.0961 18.2216 20.1941 17.8308 19.2516 17.8265L12.1447 17.7939C11.2023 17.7896 10.2967 18.1721 9.62713 18.8572C8.95757 19.5424 8.57891 20.474 8.57445 21.4473L8.56605 23.2822M19.2853 10.4871C19.276 12.5138 17.6775 14.1495 15.715 14.1405C13.7525 14.1315 12.1691 12.4812 12.1784 10.4545C12.1877 8.42781 13.7861 6.79213 15.7486 6.80112C17.7112 6.81012 19.2946 8.46038 19.2853 10.4871Z" stroke="#1E1E1E" stroke-width="2" stroke-linecap="round" stroke-linejoin="round"/>
</svg>
