<svg width="27" height="26" viewBox="0 0 27 26" fill="none" xmlns="http://www.w3.org/2000/svg">
<g id="User">
<g id="icons">
<g id="User">
<path id="Icon" d="M33.78 37.3473L33.7884 35.5124C33.7929 34.5392 33.4228 33.6041 32.7595 32.9128C32.0963 32.2216 31.1942 31.8308 30.2518 31.8265L23.1449 31.7939C22.2024 31.7896 21.2968 32.1721 20.6273 32.8572C19.9577 33.5424 19.579 34.474 19.5746 35.4473L19.5662 37.2822M30.2854 24.4871C30.2761 26.5138 28.6776 28.1495 26.7151 28.1405C24.7526 28.1315 23.1692 26.4812 23.1785 24.4545C23.1878 22.4278 24.7862 20.7921 26.7488 20.8011C28.7113 20.8101 30.2947 22.4604 30.2854 24.4871Z" stroke="#1E1E1E" stroke-width="2" stroke-linecap="round" stroke-linejoin="round"/>
</g>
</g>
</g>
</svg>
