<?xml version="1.0" standalone="no"?>
<!DOCTYPE svg PUBLIC "-//W3C//DTD SVG 20010904//EN"
 "http://www.w3.org/TR/2001/REC-SVG-20010904/DTD/svg10.dtd">
<svg version="1.0" xmlns="http://www.w3.org/2000/svg"
 width="512.000000pt" height="512.000000pt" viewBox="0 0 512.000000 512.000000"
 preserveAspectRatio="xMidYMid meet">

<g transform="translate(0.000000,512.000000) scale(0.100000,-0.100000)"
fill="#000000" stroke="none">
<path d="M4213 5106 c-23 -7 -57 -23 -75 -34 -33 -21 -204 -216 -227 -259 -24
-46 14 -103 69 -103 27 0 56 27 165 154 33 38 73 77 90 87 55 34 122 21 174
-35 27 -29 39 -105 23 -146 -6 -14 -134 -172 -285 -352 l-276 -328 -103 86
c-57 47 -106 89 -110 93 -4 4 31 53 77 109 47 57 85 110 85 118 0 55 -64 99
-108 75 -11 -6 -105 -112 -208 -236 -188 -224 -189 -225 -229 -225 -22 0 -54
-9 -71 -19 -17 -11 -84 -81 -148 -157 -131 -156 -146 -186 -121 -256 9 -24 17
-47 18 -52 1 -4 -92 -47 -208 -95 -544 -225 -912 -418 -1098 -577 -59 -51
-158 -174 -185 -231 l-16 -33 -375 0 c-228 0 -391 -4 -413 -10 -21 -6 -51 -22
-68 -37 -55 -46 -60 -66 -60 -243 0 -179 5 -198 64 -247 l34 -28 5 -195 c8
-271 51 -462 156 -685 39 -84 68 -115 109 -115 28 0 72 42 72 68 0 11 -20 62
-44 113 -99 210 -135 363 -143 616 l-6 183 1783 0 1783 0 -6 -183 c-8 -266
-45 -417 -157 -643 -172 -344 -479 -615 -843 -743 l-89 -31 -690 0 -690 0 -76
26 c-210 72 -425 209 -587 373 -58 59 -75 71 -102 71 -42 0 -73 -30 -73 -71 0
-25 15 -46 77 -111 164 -169 358 -296 582 -383 l86 -33 6 -130 c5 -121 7 -133
33 -172 17 -26 43 -49 69 -61 40 -18 75 -19 677 -19 602 0 637 1 677 19 26 12
52 35 69 61 26 39 28 51 33 172 l6 130 85 33 c224 86 396 199 576 379 194 194
323 402 403 646 54 166 72 276 78 490 l5 195 34 28 c59 49 64 68 64 247 0 177
-5 197 -60 244 -51 43 -90 47 -389 44 -258 -3 -281 -4 -300 -22 -14 -13 -21
-31 -21 -57 0 -68 7 -69 316 -69 150 0 279 -3 288 -6 24 -9 24 -259 0 -268
-20 -8 -3708 -8 -3728 0 -24 9 -24 259 0 268 9 3 656 6 1439 6 l1424 0 21 22
c37 40 22 98 -31 117 -18 6 -99 11 -185 11 -85 0 -154 4 -154 9 0 5 18 82 39
172 22 90 52 224 67 297 23 111 30 132 43 126 36 -17 106 -15 137 3 18 10 84
80 148 156 123 147 147 192 128 245 -10 28 0 41 380 493 236 280 400 484 414
514 66 140 -2 325 -144 388 -58 25 -154 31 -209 13z m-535 -1050 c50 -42 92
-80 92 -82 0 -8 -104 -133 -111 -133 -6 -1 -205 164 -213 177 -3 5 20 39 51
76 49 59 57 65 72 53 9 -7 58 -48 109 -91z m-209 -256 c82 -69 150 -129 150
-134 1 -4 -42 -60 -95 -122 -86 -101 -99 -113 -113 -101 -9 8 -84 71 -168 140
-83 70 -154 131 -158 136 -3 6 38 62 91 125 97 115 97 115 120 98 13 -9 91
-73 173 -142z m-799 -464 c0 -1 -51 -38 -112 -81 -248 -173 -485 -358 -620
-484 l-86 -81 -116 0 c-137 0 -136 -3 -33 106 113 121 390 284 802 470 177 80
165 75 165 70z m269 -13 c-8 -10 -130 -156 -272 -325 l-258 -308 -166 0 c-153
0 -164 1 -152 17 21 24 187 157 339 270 123 91 510 362 519 363 2 0 -3 -8 -10
-17z m122 -106 c-11 -29 -145 -323 -200 -439 l-42 -88 -105 0 -106 0 19 24
c24 33 437 525 440 526 1 0 -1 -10 -6 -23z m32 -354 c-46 -187 -40 -173 -73
-173 -17 0 -30 2 -30 5 0 2 23 53 51 112 28 59 55 118 60 131 19 48 16 18 -8
-75z m97 -2596 c0 -59 -4 -97 -12 -105 -17 -17 -1219 -17 -1236 0 -8 8 -12 46
-12 105 l0 93 630 0 630 0 0 -93z"/>
<path d="M1265 4333 c-281 -64 -578 -189 -605 -253 -20 -48 16 -100 69 -100
11 0 52 18 93 39 128 69 318 133 532 180 48 11 96 27 107 37 25 23 25 78 -1
104 -26 26 -58 25 -195 -7z"/>
<path d="M2160 4153 c-534 -31 -1040 -138 -1278 -270 -293 -163 -282 -394 27
-552 166 -85 556 -194 615 -171 48 18 60 74 24 113 -18 20 -49 30 -148 52
-151 33 -308 83 -408 131 -89 43 -172 118 -172 156 0 102 264 226 645 303 342
69 648 95 1121 95 l321 0 21 23 c36 38 28 88 -19 112 -23 12 -86 15 -361 13
-183 -1 -358 -3 -388 -5z"/>
<path d="M4035 3920 c-21 -23 -24 -72 -6 -94 7 -8 51 -33 97 -56 100 -48 174
-114 174 -154 0 -45 -69 -109 -173 -159 -103 -50 -169 -73 -336 -116 -62 -17
-122 -38 -133 -48 -28 -25 -21 -80 14 -106 27 -20 28 -20 110 -2 113 24 329
95 408 135 135 68 219 143 249 223 15 40 14 112 -3 152 -21 49 -89 119 -160
163 -128 81 -206 101 -241 62z"/>
<path d="M2175 3853 c-378 -30 -528 -50 -560 -75 -50 -39 -21 -128 43 -128 15
0 54 4 87 10 135 21 394 42 611 48 208 6 234 9 253 26 14 13 21 31 21 57 0 65
-15 69 -230 67 -102 -1 -203 -3 -225 -5z"/>
<path d="M4434 3293 c-21 -14 -58 -39 -81 -55 -56 -38 -154 -83 -287 -129 -59
-21 -114 -46 -122 -56 -35 -46 0 -113 60 -113 81 0 377 128 486 210 70 52 86
81 69 121 -22 55 -66 63 -125 22z"/>
</g>
</svg>
